<svg width="125" height="54" fill="none" xmlns="http://www.w3.org/2000/svg"><path d="M34.3 13.44V36.02c0 .212.095.392.218.41a8.78 8.78 0 0 0 2.277 0c.661-.088 1.469-.25 2.466-.497-.037.345-.055.718-.055 1.12 0 .343.02.76.06 1.21H31.42v-24.82c.15.022.343.063.581.118.348.103.706.105.919.008l.705-.006c.269-.063.491-.106.675-.125Zm9.404 1.234c-.419.1-.698.102-.899.006H42.1a9.112 9.112 0 0 0-.583-.12v23.704h2.732v-23.71c-.158.021-.337.06-.544.12Zm2.705-.137c.026.337.04.673.04 1.002 0 .433-.013.815-.036 1.14h.456c1.292-.28 2.377-.422 3.21-.422.133 0 .24.184.24.41v21.598h2.65V16.666c0-.226.107-.41.24-.41.605 0 1.471.096 2.576.283.28.07.576.113.886.133a6.575 6.575 0 0 1 0-1.123 4.698 4.698 0 0 1 .007-1.011h-10.27Zm12.443 0v23.728h7.482a13.81 13.81 0 0 1-.056-1.141c0-.37.017-.716.047-1.032-.51.133-1.077.239-1.685.31-.708.097-1.683.145-2.9.145-.132 0-.239-.185-.239-.412v-9.17c0-.226.107-.41.24-.41h2.002c.667.066 1.203.134 1.74.2l.396.047-.039-.302-.007-1.65a.58.58 0 0 1 .013-.131l.017-.096a9.75 9.75 0 0 1-2.12.213H61.74c-.132 0-.239-.184-.239-.41v-7.76c0-.226.107-.41.24-.41 1.476 0 3.027.165 4.612.491a8.148 8.148 0 0 1 0-2.21h-7.501Zm18.747 16.438c-.058-2.933-1.373-5.535-3.917-7.715-1.886-1.664-2.8-3.28-2.8-4.938 0-2.672.913-4.14 2.642-4.246 1.177 0 2.082 1.08 2.695 3.214.064-.375.153-.855.27-1.459.141-.64.261-1.176.362-1.619-.904-.922-1.995-1.437-3.242-1.527-3.139.284-4.722 2.76-4.83 7.57 0 3.24 1.198 5.842 3.563 7.725 1.977 1.54 2.978 3.303 2.978 5.237-.126 2.717-1.071 4.14-2.813 4.248-1.723-.103-2.8-1.492-3.21-4.131h-.03a44.994 44.994 0 0 1-.522 4.212c1.048.68 2.137 1.07 3.237 1.162 3.476 0 5.395-2.822 5.617-7.733Zm4.576-3.415c-.042.004-.102.023-.153.108a.574.574 0 0 0-.069.281v10.315h-2.75v-23.73h4.954c2.836 0 4.242 1.857 4.294 5.672.02 2.077-.313 3.73-.99 4.91-.932 1.627-2.563 2.451-4.847 2.451-.14 0-.28-.003-.44-.007Zm-.025-1.197c.106.027.22.04.335.04.338 0 .728-.11 1.157-.33 1.248-.612 1.941-2.35 2.058-5.193-.117-3.205-.852-4.988-2.202-5.3h-1.315c-.126 0-.23.178-.23.394v10.003c0 .194.084.36.197.386Zm17.3-11.83v23.731h7.495a14.331 14.331 0 0 1-.055-1.159c0-.376.015-.729.048-1.05a12.4 12.4 0 0 1-1.696.315c-.714.096-1.66.142-2.894.142-.127 0-.23-.177-.23-.39v-9.16c0-.215.103-.392.23-.392h2.22c.834.086 1.593.168 2.288.25-.012-.098-.025-.208-.043-.327l-.007-1.643c0-.045.003-.088.012-.125l.024-.12c-.694.14-1.458.213-2.274.213h-2.22c-.127 0-.23-.176-.23-.391v-7.75c0-.215.103-.391.23-.391 1.48 0 3.033.167 4.619.494a8.112 8.112 0 0 1 .003-2.246h-7.52Zm13.984 23.732h-4.564V14.533l5.87-.002c3.957.462 5.987 4.113 6.202 11.141-.266 7.899-2.793 12.136-7.508 12.593Zm4.43-12.57c0-6.523-1.711-9.834-5.081-9.834h-1.018c-.125 0-.228.178-.228.394v20.29c0 .213.103.391.228.391h.9c1.723 0 3.037-.964 3.907-2.86.856-1.872 1.292-4.691 1.292-8.382ZM89.985 14.532v23.731h7.494a14.555 14.555 0 0 1-.056-1.159c0-.376.017-.729.05-1.05-.518.135-1.088.244-1.697.315-.713.096-1.66.142-2.895.142-.125 0-.229-.177-.229-.39v-9.16c0-.215.104-.392.23-.392h2.22c.835.086 1.593.168 2.288.25a21.603 21.603 0 0 0-.042-.327l-.008-1.643c0-.045.005-.088.013-.125.007-.042.015-.083.02-.12-.69.14-1.453.213-2.27.213H92.88c-.125 0-.229-.176-.229-.391v-7.75c0-.215.104-.391.23-.391 1.479 0 3.033.167 4.618.494a8.28 8.28 0 0 1 .002-2.246h-7.517Z" fill="#002D73"/><path d="m26.205 26.032-6.83-11.7-2.91 6.327 3.137 5.373c.29.497.29 1.307 0 1.803l-.907 1.553s.611 1.57.64 1.664c.14.485.175 1.623-.226 2.143l-7.134 9.383c-.002 3.149-.004 9.623-.001 9.625.001.001 14.231-24.368 14.231-24.368.29-.497.29-1.306 0-1.803Z" fill="#3E8EDE"/><path d="M10.34 27.505c-.288-.494-.288-1.304 0-1.8l.909-1.556-.621-1.53c-.296-.718-.203-1.74.205-2.274l7.135-9.383.005-9.62-.004-.004-.003-.009L3.738 25.705c-.29.496-.29 1.306 0 1.802l6.83 11.7 2.91-6.327-3.138-5.375Z" fill="#002D73"/><path d="M21.565 7.028c.134 0 .265.14.325.349.109.383-.048.725-.134.914l-6.252 13.594a.925.925 0 0 0-.01.574c.033.084 3.375 8.389 3.49 8.671.164.405.148 1.449-.18 1.874L8.753 46.224c-.14.186-.246.287-.392.289-.126-.014-.253-.157-.308-.346-.11-.383.055-.747.135-.922l6.25-13.589a.935.935 0 0 0 .013-.577l-3.49-8.595c-.252-.616-.174-1.49.176-1.948L21.19 7.313c.151-.202.26-.285.375-.285Zm0-.045c-.121 0-.234.085-.39.295L11.12 20.5c-.361.473-.442 1.373-.18 2.01l3.488 8.595a.867.867 0 0 1-.012.525l-6.25 13.588c-.082.182-.254.562-.137.969.059.203.194.355.33.37.156-.002.268-.112.409-.297l10.053-13.22c.347-.452.348-1.529.184-1.935l-3.49-8.671a.858.858 0 0 1 .009-.52l6.252-13.596c.082-.179.254-.549.137-.96-.064-.224-.203-.375-.348-.375Z" fill="#3E8EDE"/><path d="M18.644 31.263c.081.21.154 1.006-.05 1.269L8.54 45.754c-.084.111-.139.165-.163.162-.034.003-.01-.102.083-.306l6.25-13.585c.158-.35.168-.925.023-1.283l-3.489-8.6s7.32 8.91 7.4 9.12Z" fill="#FFCE00"/><path d="m18.644 31.263-3.436-8.466c-.145-.359-.134-.935.022-1.276l6.251-13.594c.093-.202.117-.304.083-.304-.024 0-.08.05-.163.163l-10.054 13.22c-.201.267-.25.779-.102 1.135l7.399 9.122Z" fill="#FFDE6E"/></svg>