<svg id="svg" version="1.1" xmlns="http://www.w3.org/2000/svg" xmlns:xlink="http://www.w3.org/1999/xlink" width="400" height="400" viewBox="0, 0, 400,400"><g id="svgg"><path id="path0" d="M87.778 14.828 C 69.962 23.731,28.746 70.825,15.160 97.804 C 11.667 104.741,11.678 112.135,15.205 127.734 C 40.261 238.565,166.609 363.355,276.270 385.580 C 290.060 388.375,295.524 388.200,302.387 384.744 C 322.770 374.479,360.410 343.846,376.704 324.261 C 397.772 298.938,391.602 289.193,331.727 253.217 C 284.478 224.827,277.053 224.702,253.773 251.905 L 243.480 263.932 237.951 261.964 C 194.204 246.393,153.606 205.790,138.031 162.034 L 136.058 156.490 147.380 146.858 C 175.346 123.066,175.290 115.717,146.783 68.273 C 115.697 16.537,104.555 6.445,87.778 14.828 M104.430 50.000 C 117.228 68.619,127.032 85.212,136.438 104.174 L 142.578 116.551 139.453 119.304 C 137.734 120.818,133.340 124.551,129.688 127.599 C 120.475 135.289,113.600 141.937,110.510 146.146 L 107.890 149.713 109.022 155.127 C 121.536 214.937,185.063 278.464,244.873 290.978 L 250.287 292.110 253.854 289.490 C 258.385 286.163,264.791 279.423,274.563 267.702 C 278.805 262.614,282.708 258.285,283.236 258.082 C 286.398 256.869,328.233 280.463,351.003 296.301 L 360.990 303.248 356.081 308.799 C 343.002 323.588,310.973 350.208,293.499 360.811 C 287.723 364.316,252.820 353.814,226.755 340.729 C 138.642 296.493,55.962 198.623,39.830 119.462 C 37.407 107.575,37.199 108.116,51.833 88.281 C 67.413 67.165,95.193 37.737,97.358 40.056 C 97.851 40.584,101.033 45.059,104.430 50.000 " stroke="none" fill="#b00000" fill-rule="evenodd"></path></g></svg>